<svg width="91" height="91" viewBox="0 0 91 91" fill="none" xmlns="http://www.w3.org/2000/svg">
<circle cx="45.5" cy="45.5" r="44" stroke="#00B312" stroke-opacity="0.5" stroke-width="3"/>
<path d="M60.1315 30.8366C54.9157 35.3508 50.5029 39.6479 46.463 45.2544C44.6813 47.7272 42.6999 50.6378 41.4048 53.3857C40.6654 54.8428 39.3326 57.1197 38.8782 59.3087C36.393 56.9966 33.7236 54.3723 30.9923 52.3168C29.0456 50.8523 23.4385 53.8382 25.7209 55.5556C29.8116 58.6324 33.2136 62.4647 37.1923 65.6787C38.8566 67.0215 42.5448 64.1054 43.4115 62.882C46.2565 58.8513 46.6453 53.9241 48.7188 49.5275C51.8846 42.8032 57.4992 37.2796 63.0426 32.4829C66.7154 29.0574 62.9221 28.4256 60.1371 30.8366" fill="#37B34A"/>
</svg>
